<svg width="64" height="64" viewBox="0 0 64 64" fill="none" xmlns="http://www.w3.org/2000/svg">
<path d="M64 64H0V0H64V64Z" fill="#E22127"/>
<path d="M21.9804 37.5196C23.1391 38.2076 25.0724 39.2587 27.2445 39.2887H27.3338C28.5605 39.2887 29.4359 38.9551 30.0039 38.4291C30.5847 37.8908 30.8104 37.1825 30.818 36.5343C30.7956 34.3074 28.4596 33.2725 26.3512 32.0934C24.207 30.9164 22.2543 29.6672 22.2543 27.4545L22.2561 27.3898C22.2938 24.5352 24.8019 23.0987 28.1371 23.0971H28.1953C30.0754 23.1161 32.0353 23.606 32.7993 23.7729L32.8494 23.7837V23.0731L32.8185 23.0655C31.9876 22.8804 30.0766 22.4216 28.2034 22.4012L28.071 22.4C26.3604 22.4 24.7839 22.7383 23.59 23.4995C22.364 24.2747 21.567 25.7058 21.555 27.3804V27.4124C21.555 30.131 23.8787 31.5271 26.0142 32.7019C28.1739 33.8658 30.1252 34.8995 30.1198 36.4523L30.116 36.5253C30.0702 37.514 29.5488 38.582 27.2565 38.5928C25.1278 38.5729 23.1054 37.3922 22.0275 36.7356L22.0147 36.7278L21.9812 36.7615V37.5196H21.9804Z" fill="white"/>
<path d="M28.2479 24.1388H28.2505C30.0413 24.1571 31.8713 24.8086 32.8455 25.1297H32.8485V24.5793C31.8296 24.2423 30.0669 23.6746 28.2568 23.6532H28.1542C26.9093 23.6532 25.7346 23.8773 24.8577 24.4528H24.8589C23.9581 25.0363 23.3266 26.016 23.3206 27.2714C23.328 29.5823 25.6541 30.7167 27.7744 31.9029C29.926 33.0786 31.8883 34.2746 31.8839 36.2648V36.3292C31.844 38.3354 30.3386 39.86 27.2595 39.8632H27.2348C25.0547 39.8432 22.8485 38.8637 22.0152 38.4639L21.9804 38.4465V39.0322L21.9928 39.0388C22.9995 39.5028 25.0725 40.3214 27.233 40.348H27.3628C28.9453 40.348 30.2167 40.0295 31.1138 39.3457C32.0368 38.6436 32.539 37.53 32.5472 36.3361V36.322C32.5446 33.796 30.2259 32.5038 28.096 31.3244C25.9412 30.1518 23.9805 29.0515 23.9851 27.348V27.2792C24.0124 25.2044 25.8365 24.1402 28.2479 24.1388Z" fill="white"/>
<path d="M29.8629 30.5254C27.7012 29.3744 25.7339 28.3923 25.7473 27.2456L25.7509 27.1745C25.7793 25.9043 26.7055 25.3969 28.1611 25.3796C29.8409 25.3947 31.5774 26.1636 32.7931 26.6509L32.8105 26.6587L32.8488 26.6201V25.9243L32.8258 25.9157C31.6339 25.4343 29.9352 24.7089 28.1679 24.6849H28.1109C27.3196 24.6849 26.583 24.8506 26.0132 25.247C25.4269 25.6506 25.0513 26.3203 25.0495 27.1661C25.1064 29.0881 27.4219 29.9369 29.5204 31.1343C31.6517 32.3165 33.6142 33.6831 33.6134 36.0701V36.1335C33.5688 39.1636 31.1209 40.9015 27.2802 40.9057H27.2215C25.0315 40.8823 22.7078 40.1487 22.0149 39.9662L21.979 39.9556V40.6752L21.9914 40.6782C22.8063 40.9053 25.0457 41.5754 27.2129 41.599L27.3743 41.6C29.3292 41.6 31.019 41.1846 32.2593 40.326C33.5319 39.4498 34.2991 37.8808 34.3132 36.1409V36.0957C34.312 33.2463 32.0007 31.7098 29.8615 30.5262L29.8629 30.5254ZM7.98332 37.5196C9.13967 38.2076 11.0754 39.2587 13.2462 39.2887H13.3353C14.5622 39.2887 15.4383 38.9551 16.0054 38.4291C16.5864 37.8908 16.8122 37.1825 16.8204 36.5343C16.7974 34.3074 14.4629 33.2725 12.3536 32.0934C10.2087 30.9164 8.25563 29.6672 8.25803 27.4545V27.3898C8.29798 24.5352 10.8031 23.0987 14.1385 23.0971H14.1996C16.0786 23.1161 18.039 23.606 18.8018 23.7729L18.852 23.7837V23.0731L18.821 23.0655C17.9907 22.8804 16.079 22.4216 14.2076 22.4012L14.0739 22.4C12.3646 22.4 10.7871 22.7383 9.59438 23.4995C8.36691 24.2747 7.57017 25.7058 7.55719 27.3804V27.4124C7.55719 30.131 9.88087 31.5271 12.0152 32.702C14.1762 33.8658 16.1267 34.8995 16.1193 36.4523L16.1163 36.5253C16.071 37.514 15.5507 38.5821 13.2568 38.5928C11.1291 38.5729 9.10751 37.3922 8.02967 36.7356L8.01669 36.7278L7.98332 36.7615V37.5196Z" fill="white"/>
<path d="M14.2498 24.1388H14.2542C16.042 24.1571 17.875 24.8086 18.8492 25.1297H18.8512V24.5793C17.8323 24.2423 16.0708 23.6746 14.2608 23.6532H14.1575C12.9126 23.6532 11.7371 23.8773 10.863 24.4528C9.9622 25.0363 9.33069 26.016 9.3227 27.2714C9.33189 29.5823 11.658 30.7167 13.7779 31.9029C15.9277 33.079 17.8876 34.275 17.8864 36.2652V36.3295C17.8465 38.3358 16.3405 39.8604 13.2608 39.8636H13.2361C11.057 39.8436 8.85101 38.8641 8.01771 38.4643L7.98235 38.4469V39.0326L7.99413 39.0392C9.00064 39.5032 11.0732 40.3218 13.2341 40.3484H13.3659C14.9478 40.3484 16.2178 40.0299 17.1163 39.3461C18.0381 38.644 18.5415 37.5304 18.5495 36.3365V36.3224C18.5471 33.7964 16.2284 32.5042 14.0991 31.3248C11.9441 30.1526 9.98218 29.0523 9.98758 27.3488V27.28C10.0135 25.2052 11.8374 24.1402 14.249 24.1388H14.2498Z" fill="white"/>
<path d="M15.8644 30.5253C13.7035 29.3742 11.7354 28.3921 11.7504 27.2455L11.7516 27.1743C11.7812 25.9041 12.708 25.3968 14.163 25.3794C15.8412 25.3946 17.5793 26.1634 18.7956 26.6508L18.8118 26.6586L18.8517 26.62V25.9241L18.8264 25.9155C17.6368 25.4342 15.9367 24.7087 14.1706 24.6847H14.1123C13.3217 24.6847 12.5861 24.8505 12.0157 25.2469C11.4292 25.6505 11.0568 26.3201 11.0512 27.1659C11.1087 29.0868 13.4238 29.9356 15.5215 31.133C17.6546 32.3152 19.6171 33.6817 19.6151 36.0687V36.1321C19.5717 39.1622 17.1256 40.9002 13.2845 40.9044H13.2246C11.037 40.881 8.71089 40.1473 8.01804 39.9648L7.98328 39.9542V40.6739L7.99327 40.6769C8.80859 40.904 11.05 41.574 13.2172 41.5976L13.377 41.5986C15.3349 41.5986 17.0227 41.1832 18.2626 40.3246C19.5372 39.4489 20.3022 37.8798 20.3163 36.1391V36.0939C20.3151 33.2445 18.0056 31.7081 15.8646 30.5245L15.8644 30.5253ZM37.7994 41.4117H38.4311V22.6777H37.7994V41.4117ZM36.3468 22.7167C36.5344 26.662 36.355 40.7288 36.3468 41.3875L36.3722 41.4137H37.0614V22.6789H36.3864L36.3474 22.7167H36.3468ZM39.885 22.7167C39.6976 26.662 39.8794 40.7288 39.8874 41.3875L39.8608 41.4137H39.1735V22.6789H39.8478L39.885 22.7167Z" fill="white"/>
<rect width="0.749641" height="18.9209" transform="matrix(-1 0 0 1 45.6723 22.6791)" fill="white"/>
<rect width="0.749641" height="18.9209" transform="matrix(-1 0 0 1 44.3228 22.6791)" fill="white"/>
<rect width="0.749641" height="18.9209" transform="matrix(-1 0 0 1 42.9071 22.6791)" fill="white"/>
<path d="M46.4291 26.4759V25.8795C51.9174 25.1485 52.9909 29.5634 52.9909 31.7279C52.9909 38.1455 49.2663 38.676 46.4291 38.3513V37.7332C52.0387 38.3513 52.2165 34.388 52.2165 31.7279C52.2165 26.7732 48.3582 26.1621 46.4291 26.4759Z" fill="white"/>
<path d="M46.4348 24.9295L46.4347 24.2673C53.6153 23.4323 54.7722 29.2971 54.7722 31.7276C54.7722 38.1452 51.004 40.5687 46.4988 39.9327V39.2967C53.4597 40.127 53.9635 34.3875 53.9978 31.7276C54.0829 25.1258 48.3639 24.6157 46.4348 24.9295Z" fill="white"/>
<path d="M46.4353 23.4806L46.4352 22.7785C53.6158 21.9435 56.1965 26.4971 56.4282 31.7276C56.6883 37.5957 53.4812 42.3691 46.4768 41.4967V40.8297C55.3512 41.6363 55.6538 34.485 55.6538 31.7276C55.6538 23.929 49.6749 23.1376 46.4353 23.4806Z" fill="white"/>
</svg>
