<svg width="65" height="65" viewBox="0 0 65 65" fill="none" xmlns="http://www.w3.org/2000/svg">
<circle cx="32.5" cy="32.5" r="32.5" fill="white"/>
<path d="M37.3693 17.0257C38.8647 17.0257 40.077 15.8134 40.077 14.318C40.077 12.8225 38.8647 11.6103 37.3693 11.6103C35.8739 11.6103 34.6616 12.8225 34.6616 14.318C34.6616 15.8134 35.8739 17.0257 37.3693 17.0257Z" fill="white"/>
<path d="M30.5558 56.4884C24.6571 53.0868 18.9241 49.7745 13.051 46.3856C14.4141 45.9143 14.6307 44.9714 14.6307 43.7867C14.6053 36.0662 14.6053 28.3458 14.6307 20.6381C14.6307 19.5297 14.4651 18.5742 13 18.141C15.6754 16.5995 18.1597 15.1599 20.8606 13.6056V15.8096C20.8606 25.0462 20.8606 34.2954 20.8606 43.519C20.8606 44.9332 21.2173 45.6594 22.4785 46.3728C23.4977 46.9463 23.6507 46.9972 24.4277 47.4304C24.4277 46.7932 24.4277 46.411 24.4277 45.9652C24.4277 34.9324 24.4533 24.0652 24.4277 12.8285C24.4277 11.8984 24.6316 11.3251 25.498 10.8792C27.1669 10.0129 28.7594 9.03194 30.5429 8V56.4884H30.5558Z" fill="#33CC99"/>
<path fill-rule="evenodd" clip-rule="evenodd" d="M48.0098 48.6398C43.4871 51.2517 39.0026 53.8379 34.4161 56.4878V8.01212C34.9512 8.31788 35.4607 8.62364 35.9703 8.91666C37.168 9.61736 38.3018 10.2798 39.4739 10.8914C40.3276 11.3373 40.544 11.9106 40.544 12.8406C40.5314 20.3317 40.544 27.6572 40.544 34.9828C40.544 38.639 40.544 42.2955 40.544 45.9773C40.544 46.2576 40.544 46.5251 40.544 46.8437C40.544 47.0221 40.544 47.2259 40.544 47.4551C40.9135 47.2513 41.1428 47.1239 41.385 46.9964C41.6652 46.8564 41.9581 46.6907 42.4932 46.3977C43.7546 45.6971 44.1241 44.9581 44.1113 43.544V43.5185C44.1113 34.2946 44.1113 25.0583 44.1113 15.8345V13.6305C45.2323 14.2802 46.328 14.9044 47.3983 15.5287C48.9144 16.395 50.4049 17.2614 51.9719 18.1659C50.5067 18.599 50.3412 19.5546 50.3412 20.663C50.354 28.3834 50.3666 36.1037 50.3412 43.8115C50.3412 44.9835 50.5578 45.9264 51.9208 46.4105L48.0098 48.6655V48.6398ZM38.1618 12.8151L37.4736 11.4264L36.7857 12.8151L35.2443 13.0444L36.3527 14.1273L36.085 15.6561L37.461 14.9299L38.8371 15.6561L38.5694 14.1273L39.6777 13.0444L38.1363 12.8151H38.1618Z" fill="url(#paint0_linear_3_10)"/>
<defs>
<linearGradient id="paint0_linear_3_10" x1="34.4161" y1="32.2563" x2="51.9846" y2="32.2563" gradientUnits="userSpaceOnUse">
<stop stop-color="#07806D"/>
<stop offset="1" stop-color="#035663"/>
</linearGradient>
</defs>
</svg>
