<svg width="40" height="40" viewBox="0 0 40 40" fill="none" xmlns="http://www.w3.org/2000/svg">
<circle cx="20" cy="20" r="20" fill="white"/>
<path d="M22.9965 10.4773C23.9167 10.4773 24.6628 9.73131 24.6628 8.81105C24.6628 7.8908 23.9167 7.14478 22.9965 7.14478C22.0762 7.14478 21.3302 7.8908 21.3302 8.81105C21.3302 9.73131 22.0762 10.4773 22.9965 10.4773Z" fill="white"/>
<path d="M18.8035 34.7621C15.1736 32.6688 11.6456 30.6305 8.03139 28.545C8.87025 28.2549 9.00352 27.6747 9.00352 26.9457C8.98785 22.1946 8.98785 17.4436 9.00352 12.7003C9.00352 12.0183 8.90157 11.4303 8 11.1637C9.64638 10.2151 11.1752 9.32915 12.8373 8.37268V9.72899C12.8373 15.413 12.8373 21.1048 12.8373 26.7809C12.8373 27.6512 13.0568 28.0981 13.833 28.5371C14.4602 28.89 14.5543 28.9213 15.0325 29.1879C15.0325 28.7958 15.0325 28.5606 15.0325 28.2863C15.0325 21.4969 15.0482 14.8093 15.0325 7.89443C15.0325 7.32211 15.1579 6.96932 15.6911 6.69492C16.7181 6.1618 17.6981 5.55812 18.7957 4.92308V34.7621H18.8035Z" fill="#33CC99"/>
<path fill-rule="evenodd" clip-rule="evenodd" d="M29.5445 29.9322C26.7613 31.5395 24.0016 33.131 21.1791 34.7617V4.93053C21.5084 5.11869 21.822 5.30685 22.1356 5.48717C22.8726 5.91838 23.5704 6.32606 24.2916 6.70237C24.817 6.97677 24.9502 7.32958 24.9502 7.90189C24.9424 12.5118 24.9502 17.0198 24.9502 21.5278C24.9502 23.7779 24.9502 26.028 24.9502 28.2937C24.9502 28.4662 24.9502 28.6308 24.9502 28.8269C24.9502 28.9367 24.9502 29.0621 24.9502 29.2032C25.1775 29.0777 25.3186 28.9993 25.4677 28.9209C25.6401 28.8347 25.8204 28.7327 26.1496 28.5524C26.9259 28.1213 27.1533 27.6665 27.1454 26.7963V26.7806C27.1454 21.1044 27.1454 15.4205 27.1454 9.7443V8.38797C27.8352 8.78781 28.5095 9.17197 29.1682 9.55613C30.1012 10.0893 31.0184 10.6224 31.9827 11.179C31.081 11.4456 30.9792 12.0336 30.9792 12.7157C30.9871 17.4667 30.9948 22.2177 30.9792 26.9609C30.9792 27.6822 31.1125 28.2624 31.9513 28.5603L29.5445 29.948V29.9322ZM23.4842 7.88621L23.0607 7.03165L22.6374 7.88621L21.6888 8.02733L22.3709 8.69374L22.2061 9.63454L23.0529 9.18765L23.8997 9.63454L23.735 8.69374L24.4171 8.02733L23.4685 7.88621H23.4842Z" fill="url(#paint0_linear_3_10)"/>
<defs>
<linearGradient id="paint0_linear_3_10" x1="21.1791" y1="19.85" x2="31.9905" y2="19.85" gradientUnits="userSpaceOnUse">
<stop stop-color="#07806D"/>
<stop offset="1" stop-color="#035663"/>
</linearGradient>
</defs>
</svg>
