<svg width="22" height="27" viewBox="0 0 22 27" fill="none" xmlns="http://www.w3.org/2000/svg">
<path d="M13.5 5C14.3284 5 15 4.32843 15 3.5C15 2.67157 14.3284 2 13.5 2C12.6716 2 12 2.67157 12 3.5C12 4.32843 12.6716 5 13.5 5Z" fill="white"/>
<path d="M9.72547 26.8614C6.45778 24.977 3.2818 23.1421 0.0282588 21.2647C0.783405 21.0036 0.903378 20.4813 0.903378 19.825C0.889277 15.548 0.889277 11.2711 0.903378 7.00118C0.903378 6.38716 0.811607 5.85786 0 5.61789C1.48209 4.76392 2.85837 3.9664 4.35456 3.10537V4.32634C4.35456 9.44317 4.35456 14.567 4.35456 19.6767C4.35456 20.4601 4.5522 20.8624 5.25089 21.2576C5.8155 21.5753 5.90022 21.6035 6.3307 21.8435C6.3307 21.4905 6.3307 21.2788 6.3307 21.0318C6.3307 14.9199 6.34486 8.89971 6.3307 2.67485C6.3307 2.15964 6.44362 1.84205 6.92357 1.59503C7.8481 1.11511 8.73032 0.57167 9.71837 0V26.8614H9.72547Z" fill="#33CC99"/>
<path fill-rule="evenodd" clip-rule="evenodd" d="M19.3946 22.5135C16.8891 23.9604 14.4048 25.3931 11.864 26.8611V0.00671387C12.1604 0.176097 12.4427 0.345481 12.725 0.507807C13.3885 0.89598 14.0166 1.26298 14.6659 1.60174C15.1388 1.84876 15.2587 2.16636 15.2587 2.68156C15.2517 6.83145 15.2587 10.8896 15.2587 14.9478C15.2587 16.9733 15.2587 18.9989 15.2587 21.0385C15.2587 21.1938 15.2587 21.342 15.2587 21.5185C15.2587 21.6173 15.2587 21.7302 15.2587 21.8572C15.4634 21.7443 15.5904 21.6737 15.7246 21.6031C15.8798 21.5255 16.0421 21.4337 16.3385 21.2714C17.0373 20.8833 17.242 20.4739 17.2349 19.6905V19.6764C17.2349 14.5666 17.2349 9.44987 17.2349 4.34012V3.11914C17.8559 3.47908 18.4629 3.8249 19.0558 4.17073C19.8957 4.65065 20.7214 5.13057 21.5895 5.63167C20.7778 5.87161 20.6861 6.40097 20.6861 7.01499C20.6932 11.2919 20.7002 15.5688 20.6861 19.8387C20.6861 20.488 20.8061 21.0103 21.5612 21.2785L19.3946 22.5277V22.5135ZM13.939 2.66745L13.5578 1.89816L13.1767 2.66745L12.3228 2.79448L12.9368 3.39439L12.7885 4.24131L13.5508 3.83902L14.3131 4.24131L14.1648 3.39439L14.7788 2.79448L13.9249 2.66745H13.939Z" fill="url(#paint0_linear_2_2)"/>
<defs>
<linearGradient id="paint0_linear_2_2" x1="11.864" y1="13.4374" x2="21.5965" y2="13.4374" gradientUnits="userSpaceOnUse">
<stop stop-color="#07806D"/>
<stop offset="1" stop-color="#035663"/>
</linearGradient>
</defs>
</svg>
