<svg width="62" height="32" viewBox="0 0 62 32" fill="none" xmlns="http://www.w3.org/2000/svg">
<path d="M0 6.90121C0 3.08977 3.11553 0 6.95873 0H54.7368C58.58 0 61.6955 3.08977 61.6955 6.90121V25.0988C61.6955 28.9102 58.58 32 54.7368 32H6.95872C3.11553 32 0 28.9102 0 25.0988V6.90121Z" fill="#E22127"/>
<path d="M19.9771 21.8944C21.2197 22.6292 23.2929 23.7517 25.6221 23.7837H25.7179C27.0333 23.7837 27.9721 23.4274 28.5812 22.8658C29.204 22.2909 29.4461 21.5345 29.4542 20.8422C29.4302 18.464 26.9251 17.3589 24.6642 16.0998C22.3648 14.8428 20.2708 13.5088 20.2708 11.1458L20.2728 11.0766C20.3133 8.02818 23.0028 6.49412 26.5793 6.49241H26.6417C28.6579 6.51269 30.7596 7.03593 31.5788 7.21418L31.6326 7.22571V6.4668L31.5994 6.45868C30.7084 6.261 28.6592 5.77107 26.6505 5.7493L26.5084 5.74802C24.6741 5.74802 22.9835 6.10922 21.7032 6.92215C20.3885 7.75001 19.5339 9.2783 19.521 11.0666V11.1008C19.521 14.0041 22.0128 15.495 24.3028 16.7496C26.6188 17.9925 28.7112 19.0964 28.7055 20.7547L28.7014 20.8326C28.6523 21.8885 28.0932 23.0291 25.635 23.0406C23.3522 23.0192 21.1835 21.7584 20.0277 21.0572L20.014 21.0488L19.978 21.0849V21.8944H19.9771Z" fill="white"/>
<path d="M26.698 7.6048H26.7008C28.6212 7.62444 30.5836 8.32016 31.6283 8.66301H31.6315V8.0753C30.5389 7.71538 28.6486 7.1091 26.7076 7.08626H26.5975C25.2626 7.08626 24.0028 7.32557 23.0625 7.94017H23.0638C22.0978 8.56331 21.4206 9.60957 21.4142 10.9502C21.4221 13.418 23.9165 14.6295 26.1902 15.8963C28.4976 17.1517 30.6018 18.429 30.5971 20.5544V20.6231C30.5543 22.7656 28.94 24.3938 25.6381 24.3972H25.6116C23.2738 24.3758 20.9079 23.3298 20.0143 22.9028L19.9771 22.8843V23.5098L19.9903 23.5168C21.0699 24.0123 23.2928 24.8865 25.6096 24.9149H25.7489C27.4459 24.9149 28.8093 24.5748 29.7712 23.8445C30.761 23.0948 31.2996 21.9055 31.3084 20.6306V20.6154C31.3056 17.9179 28.8192 16.538 26.5351 15.2785C24.2244 14.0262 22.1218 12.8512 22.1267 11.032V10.9585C22.1561 8.74285 24.1121 7.60629 26.698 7.6048Z" fill="white"/>
<path d="M28.4299 14.4252C26.1118 13.196 24.0022 12.1472 24.0166 10.9227L24.0204 10.8467C24.0508 9.49027 25.0441 8.94846 26.605 8.92989C28.4063 8.94612 30.2685 9.76715 31.5722 10.2876L31.5908 10.2959L31.6319 10.2547V9.51162L31.6073 9.50244C30.3291 8.98838 28.5075 8.21367 26.6123 8.18806H26.5512C25.7026 8.18806 24.9127 8.36503 24.3017 8.78836C23.6729 9.21937 23.2702 9.93452 23.2682 10.8377C23.3293 12.8903 25.8123 13.7968 28.0627 15.0755C30.3482 16.338 32.4527 17.7973 32.4518 20.3465V20.4142C32.404 23.6501 29.779 25.506 25.6604 25.5105H25.5974C23.2489 25.4855 20.7571 24.7021 20.0141 24.5072L19.9756 24.4959V25.2644L19.9889 25.2676C20.8627 25.5101 23.2642 26.2257 25.5882 26.2509L25.7613 26.2519C27.8577 26.2519 29.6697 25.8083 30.9997 24.8914C32.3644 23.9558 33.1871 22.2802 33.2023 20.4221V20.3738C33.201 17.3309 30.7225 15.6901 28.4284 14.4261L28.4299 14.4252ZM4.96723 21.8944C6.20725 22.6292 8.28301 23.7517 10.6109 23.7837H10.7065C12.0221 23.7837 12.9616 23.4274 13.5698 22.8657C14.1928 22.2908 14.4349 21.5345 14.4437 20.8422C14.4191 18.464 11.9157 17.3589 9.65372 16.0998C7.35364 14.8428 5.25924 13.5088 5.26181 11.1458V11.0766C5.30465 8.02816 7.99101 6.49411 11.5677 6.4924H11.6333C13.6482 6.51268 15.7506 7.03591 16.5685 7.21417L16.6223 7.2257V6.46678L16.5891 6.45867C15.6987 6.26099 13.6486 5.77106 11.6419 5.74928L11.4985 5.748C9.6655 5.748 7.97387 6.10921 6.69486 6.92213C5.37857 7.75 4.52418 9.27829 4.51025 11.0666V11.1008C4.51025 14.0041 7.00208 15.495 9.2908 16.7496C11.6082 17.9925 13.6999 19.0964 13.6919 20.7547L13.6887 20.8326C13.6401 21.8884 13.0822 23.0291 10.6223 23.0406C8.34065 23.0192 6.17275 21.7584 5.01693 21.0572L5.00301 21.0488L4.96723 21.0849V21.8944Z" fill="white"/>
<path d="M11.687 7.6048H11.6917C13.6089 7.62444 15.5746 8.32016 16.6192 8.66301H16.6213V8.0753C15.5287 7.71538 13.6398 7.1091 11.6988 7.08626H11.588C10.2531 7.08626 8.99249 7.32557 8.05519 7.94017C7.08918 8.56331 6.41197 9.60957 6.4034 10.9502C6.41325 13.418 8.90765 14.6295 11.1809 15.8963C13.4864 17.1522 15.5881 18.4294 15.5868 20.5548V20.6235C15.5439 22.766 13.929 24.3942 10.6265 24.3976H10.5999C8.26321 24.3763 5.89758 23.3302 5.00398 22.9033L4.96606 22.8847V23.5102L4.9787 23.5172C6.05804 24.0127 8.28057 24.8869 10.5978 24.9153H10.7392C12.4355 24.9153 13.7975 24.5752 14.7609 23.8449C15.7494 23.0952 16.2893 21.9059 16.2978 20.631V20.6159C16.2953 17.9183 13.8088 16.5384 11.5254 15.2789C9.21444 14.0271 7.1106 12.8521 7.11639 11.0328V10.9594C7.14424 8.7437 9.10003 7.60629 11.6861 7.6048H11.687Z" fill="white"/>
<path d="M13.4184 14.4252C11.1012 13.196 8.99068 12.1472 9.00674 10.9227L9.00803 10.8467C9.03974 9.49023 10.0336 8.94842 11.5939 8.92985C13.3935 8.94607 15.2574 9.76711 16.5617 10.2876L16.579 10.2959L16.6219 10.2547V9.51158L16.5947 9.5024C15.3191 8.98834 13.4959 8.21363 11.602 8.18801H11.5395C10.6917 8.18801 9.90291 8.36499 9.29126 8.78831C8.66225 9.21933 8.2629 9.93448 8.25691 10.8377C8.31861 12.889 10.8012 13.7954 13.0507 15.0742C15.3382 16.3367 17.4426 17.796 17.4405 20.3452V20.4128C17.394 23.6487 14.7709 25.5047 10.6519 25.5092H10.5876C8.2417 25.4842 5.7473 24.7008 5.00432 24.5058L4.96704 24.4945V25.2631L4.97775 25.2663C5.85207 25.5088 8.25562 26.2243 10.5797 26.2495L10.7511 26.2506C12.8506 26.2506 14.6605 25.807 15.9901 24.8901C17.357 23.9549 18.1773 22.2793 18.1925 20.4203V20.3721C18.1912 17.3291 15.7146 15.6884 13.4186 14.4243L13.4184 14.4252ZM36.9406 26.051H37.618V6.04469H36.9406V26.051ZM35.3829 6.08632C35.584 10.2995 35.3916 25.3218 35.3829 26.0252L35.4101 26.0531H36.1492V6.04597H35.4253L35.3835 6.08632H35.3829ZM39.1771 6.08632C38.9761 10.2995 39.1711 25.3218 39.1796 26.0252L39.1511 26.0531H38.4141V6.04597H39.1372L39.1771 6.08632Z" fill="white"/>
<rect width="0.803883" height="20.2059" transform="matrix(-1 0 0 1 45.3833 5.89705)" fill="white"/>
<rect width="0.803886" height="20.2059" transform="matrix(-1 0 0 1 43.9363 5.89705)" fill="white"/>
<rect width="0.803886" height="20.2059" transform="matrix(-1 0 0 1 42.4182 5.89705)" fill="white"/>
<path d="M46.2068 6.63723V5.8967H48.8114C55.0695 6.12141 56.9369 11.3545 56.9297 15.9091C56.9171 23.7643 52.0841 26.0075 49.2211 26.1034H46.2014V25.3552L49.2211 25.333C54.7403 25.0567 56.3267 19.1146 56.1831 15.9091C56.1776 8.36146 51.318 6.63723 48.8114 6.63723H46.2068Z" fill="white"/>
<path d="M46.2058 8.26171V7.57016H48.3579C54.2507 7.91358 54.9943 13.1321 55.0443 15.6894C55.1755 22.3828 51.437 24.2621 48.7928 24.4213L46.2058 24.4644V23.6984H48.7928C53.3577 23.5147 54.3311 18.7377 54.3311 15.6894C54.3311 9.96879 50.8888 8.39096 48.3579 8.26171H46.2058Z" fill="white"/>
<path d="M46.2031 9.89441V9.23012H48.0362C52.4577 9.60159 52.9168 13.0028 53.1271 15.5853C53.4292 21.3932 50.2435 22.6744 48.4045 22.7677H46.2106V22.0963H48.4045C52.4708 21.6647 52.6103 17.6054 52.4708 15.5853C52.3167 10.6843 49.6705 10.0789 48.0362 9.89441H46.2031Z" fill="white"/>
</svg>
