<svg width="50" height="50" viewBox="0 0 50 50" fill="none" xmlns="http://www.w3.org/2000/svg">
<g clip-path="url(#clip0_2041_317)">
<path d="M50 50H0V0H50V50Z" fill="#E22127"/>
<path d="M17.1722 29.3122C18.0774 29.8497 19.5878 30.6709 21.2848 30.6943H21.3545C22.3129 30.6943 22.9968 30.4337 23.4405 30.0227C23.8943 29.6022 24.0706 29.0488 24.0766 28.5424C24.0591 26.8027 22.2341 25.9941 20.5869 25.073C18.9117 24.1534 17.3862 23.1775 17.3862 21.4488L17.3876 21.3983C17.417 19.1681 19.3765 18.0459 21.9821 18.0446H22.0276C23.4964 18.0595 25.0276 18.4422 25.6245 18.5726L25.6636 18.581V18.0259L25.6395 18.0199C24.9903 17.8753 23.4973 17.5169 22.0339 17.5009L21.9305 17.5C20.5941 17.5 19.3624 17.7643 18.4297 18.359C17.4719 18.9646 16.8492 20.0827 16.8398 21.3909V21.4159C16.8398 23.5398 18.6552 24.6305 20.3236 25.5484C22.0109 26.4577 23.5353 27.2652 23.5311 28.4784L23.5281 28.5354C23.4923 29.3078 23.085 30.1422 21.2941 30.1506C19.6311 30.1351 18.0511 29.2127 17.209 28.6997L17.199 28.6936L17.1728 28.7199L17.1722 29.3122Z" fill="white"/>
<path d="M22.0687 18.8584H22.0708C23.4698 18.8727 24.8995 19.3817 25.6606 19.6325H25.6629V19.2025C24.8669 18.9392 23.4898 18.4957 22.0757 18.479H21.9955C21.0229 18.479 20.1052 18.6541 19.4201 19.1037H19.4211C18.7173 19.5596 18.224 20.3249 18.2193 21.3057C18.2251 23.1111 20.0423 23.9974 21.6988 24.9241C23.3797 25.8426 24.9128 26.777 24.9094 28.3318V28.3821C24.8782 29.9495 23.7021 31.1406 21.2965 31.1431H21.2772C19.574 31.1274 17.8504 30.3622 17.1994 30.0499L17.1722 30.0363V30.4938L17.1819 30.499C17.9684 30.8615 19.5879 31.501 21.2758 31.5218H21.3772C22.6136 31.5218 23.6069 31.273 24.3077 30.7388C25.0288 30.1903 25.4211 29.3203 25.4276 28.3875V28.3765C25.4255 26.4031 23.614 25.3935 21.9501 24.4721C20.2666 23.556 18.7348 22.6964 18.7384 21.3656V21.3118C18.7597 19.6909 20.1848 18.8595 22.0687 18.8584Z" fill="white"/>
<path d="M23.3304 23.848C21.6416 22.9488 20.1046 22.1815 20.1151 21.2856L20.1179 21.2301C20.1401 20.2377 20.8637 19.8413 22.0009 19.8278C23.3132 19.8396 24.6698 20.4403 25.6196 20.821L25.6332 20.8271L25.6631 20.797V20.2534L25.6452 20.2466C24.714 19.8705 23.3869 19.3038 22.0062 19.2851H21.9616C21.3434 19.2851 20.768 19.4145 20.3228 19.7242C19.8648 20.0395 19.5713 20.5627 19.5699 21.2235C19.6144 22.7251 21.4234 23.3882 23.0628 24.3237C24.7279 25.2473 26.2611 26.3149 26.2605 28.1798V28.2293C26.2256 30.5966 24.3132 31.9543 21.3127 31.9576H21.2668C19.5559 31.9393 17.7405 31.3662 17.1991 31.2236L17.1711 31.2153V31.7775L17.1808 31.7798C17.8174 31.9573 19.567 32.4808 21.2601 32.4992L21.3862 32.5C22.9134 32.5 24.2336 32.1755 25.2026 31.5047C26.1968 30.8202 26.7962 29.5944 26.8072 28.2351V28.1998C26.8062 25.9737 25.0005 24.7733 23.3293 23.8486L23.3304 23.848ZM6.23697 29.3122C7.14037 29.8497 8.65265 30.6709 10.3486 30.6943H10.4182C11.3767 30.6943 12.0612 30.4337 12.5042 30.0227C12.9581 29.6022 13.1345 29.0488 13.1409 28.5424C13.123 26.8027 11.2991 25.9941 9.65125 25.073C7.97554 24.1534 6.44971 23.1775 6.45158 21.4488V21.3983C6.48279 19.1681 8.43992 18.0459 11.0457 18.0446H11.0934C12.5614 18.0595 14.093 18.4422 14.6889 18.5726L14.7281 18.581V18.0259L14.7039 18.0199C14.0552 17.8753 12.5617 17.5169 11.0997 17.5009L10.9952 17.5C9.65984 17.5 8.42742 17.7643 7.49561 18.359C6.53665 18.9646 5.91419 20.0827 5.90405 21.3909V21.4159C5.90405 23.5398 7.71943 24.6305 9.38687 25.5484C11.0752 26.4577 12.599 27.2652 12.5932 28.4784L12.5909 28.5354C12.5555 29.3078 12.149 30.1423 10.3569 30.1506C8.69461 30.1351 7.11524 29.2127 6.27318 28.6997L6.26304 28.6936L6.23697 28.7199V29.3122Z" fill="white"/>
<path d="M11.1327 18.8584H11.1361C12.5328 18.8727 13.9648 19.3817 14.7259 19.6325H14.7275V19.2025C13.9315 18.9392 12.5553 18.4957 11.1412 18.479H11.0605C10.088 18.479 9.1696 18.6541 8.48671 19.1037C7.78296 19.5596 7.2896 20.3249 7.28335 21.3057C7.29053 23.1111 9.10781 23.9974 10.764 24.9241C12.4435 25.8429 13.9747 26.7773 13.9737 28.3321V28.3824C13.9426 29.9498 12.766 31.1409 10.36 31.1434H10.3407C8.63828 31.1278 6.91485 30.3625 6.26383 30.0502L6.23621 30.0366V30.4942L6.24541 30.4993C7.03175 30.8618 8.65093 31.5013 10.3391 31.5221H10.4421C11.678 31.5221 12.6702 31.2733 13.3721 30.7391C14.0923 30.1906 14.4855 29.3206 14.4918 28.3878V28.3768C14.4899 26.4034 12.6784 25.3938 11.0149 24.4724C9.33132 23.5567 7.79857 22.6971 7.80279 21.3662V21.3124C7.82304 19.6915 9.24859 18.8595 11.1327 18.8584Z" fill="white"/>
<path d="M12.3941 23.8477C10.7059 22.9484 9.16828 22.1812 9.18 21.2854L9.18094 21.2298C9.20406 20.2374 9.92813 19.8411 11.0648 19.8275C12.3759 19.8394 13.7338 20.44 14.6841 20.8208L14.6967 20.8269L14.7279 20.7967V20.253L14.7081 20.2463C13.7788 19.8703 12.4505 19.3035 11.0708 19.2848H11.0252C10.4076 19.2848 9.83289 19.4143 9.38727 19.724C8.92906 20.0393 8.63813 20.5624 8.63375 21.2232C8.67867 22.7239 10.4873 23.387 12.1262 24.3225C13.7927 25.2461 15.3259 26.3137 15.3243 28.1785V28.228C15.2904 30.5953 13.3794 31.9531 10.3785 31.9564H10.3317C8.62266 31.9381 6.80538 31.3649 6.26409 31.2223L6.23694 31.2141V31.7763L6.24474 31.7787C6.88171 31.9561 8.63281 32.4795 10.3259 32.498L10.4508 32.4987C11.9804 32.4987 13.299 32.1742 14.2677 31.5034C15.2634 30.8193 15.8611 29.5934 15.8721 28.2335V28.1982C15.8712 25.9721 14.0667 24.7724 12.3941 23.8477ZM29.5308 32.3527H30.0243V17.7168H29.5308V32.3527ZM28.3959 17.7473C28.5425 20.8295 28.4023 31.8192 28.3959 32.3338L28.4158 32.3543H28.9542V17.7177H28.4269L28.3959 17.7473ZM31.1602 17.7473C31.0137 20.8295 31.1558 31.8192 31.162 32.3338L31.1413 32.3543H30.6043V17.7177H31.1311L31.1602 17.7473Z" fill="white"/>
<path d="M35.0959 17.7183H35.6815V32.5002H35.0959V17.7183Z" fill="white"/>
<path d="M34.0415 17.7183H34.6272V32.5002H34.0415V17.7183Z" fill="white"/>
<path d="M32.9355 17.7183H33.5211V32.5002H32.9355V17.7183Z" fill="white"/>
<path d="M36.2727 20.6843V20.2184C40.5604 19.6473 41.3991 23.0964 41.3991 24.7874C41.3991 29.8012 38.4893 30.2156 36.2727 29.962V29.4791C40.6552 29.962 40.7941 26.8656 40.7941 24.7874C40.7941 20.9166 37.7798 20.4391 36.2727 20.6843Z" fill="white"/>
<path d="M36.2772 19.4764L36.2771 18.959C41.8869 18.3067 42.7908 22.8886 42.7908 24.7874C42.7908 29.8011 39.8469 31.6945 36.3272 31.1976V30.7008C41.7654 31.3494 42.159 26.8654 42.1858 24.7874C42.2523 19.6297 37.7843 19.2312 36.2772 19.4764Z" fill="white"/>
<path d="M36.2775 18.3444L36.2775 17.7959C41.8873 17.1435 43.9035 20.701 44.0845 24.7874C44.2877 29.3718 41.7822 33.101 36.31 32.4195V31.8984C43.2431 32.5285 43.4795 26.9416 43.4795 24.7874C43.4795 18.6947 38.8085 18.0764 36.2775 18.3444Z" fill="white"/>
</g>
<defs>
<clipPath id="clip0_2041_317">
<rect width="50" height="50" rx="25" fill="white"/>
</clipPath>
</defs>
</svg>
