<svg width="64" height="64" viewBox="0 0 64 64" fill="none" xmlns="http://www.w3.org/2000/svg">
<g clip-path="url(#clip0_2041_317)">
<path d="M64 64H0V0H64V64Z" fill="#E22127"/>
<path d="M21.9805 37.5195C23.1392 38.2075 25.0725 39.2586 27.2446 39.2886H27.3339C28.5606 39.2886 29.436 38.955 30.004 38.429C30.5848 37.8907 30.8105 37.1824 30.8181 36.5342C30.7957 34.3073 28.4597 33.2724 26.3513 32.0933C24.2071 30.9163 22.2544 29.6671 22.2544 27.4544L22.2562 27.3897C22.2939 24.5351 24.802 23.0986 28.1372 23.097H28.1954C30.0755 23.116 32.0354 23.6059 32.7994 23.7728L32.8495 23.7836V23.073L32.8186 23.0654C31.9877 22.8803 30.0767 22.4215 28.2035 22.4011L28.0711 22.3999C26.3605 22.3999 24.784 22.7382 23.5901 23.4994C22.3641 24.2746 21.5671 25.7057 21.5551 27.3803V27.4123C21.5551 30.1309 23.8788 31.527 26.0143 32.7018C28.174 33.8657 30.1253 34.8994 30.1199 36.4522L30.1161 36.5252C30.0703 37.5139 29.5489 38.5819 27.2566 38.5927C25.1279 38.5728 23.1055 37.3921 22.0276 36.7355L22.0148 36.7277L21.9813 36.7614L21.9805 37.5195Z" fill="white"/>
<path d="M28.2478 24.1389H28.2504C30.0412 24.1572 31.8712 24.8087 32.8454 25.1298H32.8484V24.5794C31.8295 24.2424 30.0668 23.6747 28.2567 23.6533H28.1541C26.9092 23.6533 25.7345 23.8774 24.8576 24.4529H24.8588C23.958 25.0364 23.3265 26.0161 23.3205 27.2715C23.3279 29.5824 25.654 30.7168 27.7743 31.903C29.9259 33.0787 31.8882 34.2747 31.8838 36.2649V36.3293C31.8439 38.3355 30.3385 39.8601 27.2594 39.8633H27.2347C25.0546 39.8433 22.8484 38.8638 22.0151 38.464L21.9803 38.4466V39.0323L21.9927 39.0389C22.9994 39.5029 25.0724 40.3215 27.2329 40.3481H27.3627C28.9452 40.3481 30.2166 40.0296 31.1137 39.3458C32.0367 38.6437 32.5389 37.5301 32.5471 36.3362V36.3221C32.5445 33.7961 30.2258 32.5039 28.0959 31.3245C25.9411 30.1519 23.9804 29.0516 23.985 27.3481V27.2793C24.0123 25.2045 25.8364 24.1403 28.2478 24.1389Z" fill="white"/>
<path d="M29.8628 30.5253C27.7011 29.3743 25.7338 28.3922 25.7472 27.2455L25.7508 27.1744C25.7792 25.9042 26.7054 25.3968 28.161 25.3795C29.8408 25.3946 31.5773 26.1635 32.793 26.6508L32.8104 26.6586L32.8487 26.62V25.9242L32.8257 25.9156C31.6338 25.4342 29.9351 24.7088 28.1678 24.6848H28.1108C27.3195 24.6848 26.5829 24.8505 26.0131 25.2469C25.4268 25.6505 25.0512 26.3202 25.0494 27.166C25.1063 29.088 27.4218 29.9368 29.5203 31.1342C31.6516 32.3164 33.6141 33.683 33.6133 36.07V36.1334C33.5687 39.1635 31.1208 40.9014 27.2801 40.9056H27.2214C25.0314 40.8822 22.7077 40.1486 22.0148 39.9661L21.9789 39.9555V40.6751L21.9913 40.6781C22.8062 40.9052 25.0456 41.5753 27.2128 41.5989L27.3742 41.5999C29.3291 41.5999 31.0189 41.1845 32.2592 40.3259C33.5318 39.4497 34.299 37.8807 34.3131 36.1408V36.0956C34.3119 33.2462 32.0006 31.7097 29.8614 30.5261L29.8628 30.5253ZM7.98326 37.5195C9.13961 38.2075 11.0753 39.2586 13.2461 39.2886H13.3352C14.5621 39.2886 15.4382 38.955 16.0053 38.429C16.5863 37.8907 16.8121 37.1824 16.8203 36.5342C16.7973 34.3073 14.4628 33.2724 12.3535 32.0933C10.2086 30.9163 8.25557 29.6671 8.25797 27.4544V27.3897C8.29792 24.5351 10.803 23.0986 14.1384 23.097H14.1995C16.0785 23.116 18.0389 23.6059 18.8017 23.7728L18.8519 23.7836V23.073L18.8209 23.0654C17.9906 22.8803 16.0789 22.4215 14.2075 22.4011L14.0738 22.3999C12.3645 22.3999 10.787 22.7382 9.59432 23.4994C8.36685 24.2746 7.57011 25.7057 7.55713 27.3803V27.4123C7.55713 30.1309 9.88081 31.527 12.0151 32.7019C14.1761 33.8657 16.1266 34.8994 16.1192 36.4522L16.1162 36.5252C16.0709 37.5139 15.5506 38.582 13.2567 38.5927C11.129 38.5728 9.10745 37.3921 8.02961 36.7355L8.01663 36.7277L7.98326 36.7614V37.5195Z" fill="white"/>
<path d="M14.2497 24.1389H14.2541C16.0419 24.1572 17.8749 24.8087 18.8491 25.1298H18.8512V24.5794C17.8323 24.2424 16.0708 23.6747 14.2608 23.6533H14.1575C12.9126 23.6533 11.737 23.8774 10.8629 24.4529C9.96215 25.0364 9.33064 26.0161 9.32265 27.2715C9.33184 29.5824 11.6579 30.7168 13.7778 31.903C15.9276 33.0791 17.8876 34.2751 17.8864 36.2653V36.3296C17.8465 38.3359 16.3405 39.8605 13.2608 39.8637H13.2361C11.057 39.8437 8.85096 38.8642 8.01766 38.4644L7.9823 38.447V39.0327L7.99408 39.0393C9.00059 39.5033 11.0732 40.3219 13.2341 40.3485H13.3658C14.9477 40.3485 16.2178 40.03 17.1163 39.3462C18.0381 38.6441 18.5414 37.5305 18.5494 36.3366V36.3225C18.547 33.7965 16.2284 32.5043 14.0991 31.3249C11.9441 30.1527 9.98213 29.0524 9.98753 27.3489V27.2801C10.0135 25.2053 11.8381 24.1403 14.2497 24.1389Z" fill="white"/>
<path d="M15.8644 30.5253C13.7035 29.3742 11.7354 28.3921 11.7504 27.2455L11.7516 27.1743C11.7812 25.9041 12.708 25.3968 14.163 25.3794C15.8412 25.3946 17.5793 26.1634 18.7956 26.6508L18.8118 26.6586L18.8517 26.62V25.9241L18.8264 25.9155C17.6368 25.4342 15.9367 24.7087 14.1706 24.6847H14.1123C13.3217 24.6847 12.5861 24.8505 12.0157 25.2469C11.4292 25.6505 11.0568 26.3201 11.0512 27.1659C11.1087 29.0868 13.4238 29.9356 15.5215 31.133C17.6546 32.3152 19.6171 33.6817 19.6151 36.0687V36.1321C19.5717 39.1622 17.1256 40.9002 13.2845 40.9044H13.2246C11.037 40.881 8.71089 40.1473 8.01804 39.9648L7.98328 39.9542V40.6739L7.99327 40.6769C8.80859 40.904 11.05 41.574 13.2172 41.5976L13.377 41.5986C15.3349 41.5986 17.0227 41.1832 18.2626 40.3246C19.5372 39.4489 20.3022 37.8798 20.3163 36.1391V36.0939C20.3151 33.2445 18.0054 31.7089 15.8644 30.5253ZM37.7994 41.4117H38.4311V22.6777H37.7994V41.4117ZM36.3468 22.7167C36.5344 26.662 36.355 40.7288 36.3468 41.3875L36.3722 41.4137H37.0614V22.6789H36.3864L36.3468 22.7167ZM39.885 22.7167C39.6976 26.662 39.8794 40.7288 39.8874 41.3875L39.8608 41.4137H39.1735V22.6789H39.8478L39.885 22.7167Z" fill="white"/>
<path d="M44.9226 22.6792H45.6722V41.6001H44.9226V22.6792Z" fill="white"/>
<path d="M43.5731 22.6792H44.3228V41.6001H43.5731V22.6792Z" fill="white"/>
<path d="M42.1575 22.6792H42.9071V41.6001H42.1575V22.6792Z" fill="white"/>
<path d="M46.4291 26.476V25.8796C51.9174 25.1486 52.9909 29.5635 52.9909 31.728C52.9909 38.1456 49.2663 38.6761 46.4291 38.3514V37.7333C52.0387 38.3514 52.2165 34.3881 52.2165 31.728C52.2165 26.7733 48.3582 26.1622 46.4291 26.476Z" fill="white"/>
<path d="M46.4348 24.9294L46.4347 24.2672C53.6153 23.4322 54.7722 29.297 54.7722 31.7275C54.7722 38.1451 51.004 40.5686 46.4988 39.9326V39.2966C53.4597 40.1269 53.9635 34.3874 53.9978 31.7275C54.0829 25.1257 48.3639 24.6156 46.4348 24.9294Z" fill="white"/>
<path d="M46.4353 23.4807L46.4352 22.7786C53.6158 21.9436 56.1965 26.4972 56.4282 31.7277C56.6883 37.5958 53.4812 42.3692 46.4768 41.4968V40.8298C55.3512 41.6364 55.6538 34.4851 55.6538 31.7277C55.6538 23.9291 49.6749 23.1377 46.4353 23.4807Z" fill="white"/>
</g>
<defs>
<clipPath id="clip0_2041_317">
<rect width="64" height="64" rx="32" fill="white"/>
</clipPath>
</defs>
</svg>
