<svg width="127" height="27" viewBox="0 0 127 27" fill="none" xmlns="http://www.w3.org/2000/svg">
<circle cx="13.5" cy="3.5" r="1.5" fill="white"/>
<path d="M9.72547 26.8614C6.45778 24.977 3.2818 23.1421 0.0282588 21.2647C0.783405 21.0036 0.903378 20.4813 0.903378 19.825C0.889277 15.548 0.889277 11.2711 0.903378 7.00118C0.903378 6.38716 0.811607 5.85786 0 5.61789C1.48209 4.76392 2.85837 3.9664 4.35456 3.10537V4.32634C4.35456 9.44317 4.35456 14.567 4.35456 19.6767C4.35456 20.4601 4.5522 20.8624 5.25089 21.2576C5.8155 21.5753 5.90022 21.6035 6.3307 21.8435C6.3307 21.4905 6.3307 21.2788 6.3307 21.0318C6.3307 14.9199 6.34486 8.89971 6.3307 2.67485C6.3307 2.15964 6.44362 1.84205 6.92357 1.59503C7.8481 1.11511 8.73032 0.57167 9.71837 0V26.8614H9.72547Z" fill="#33CC99"/>
<path fill-rule="evenodd" clip-rule="evenodd" d="M19.3946 22.5135C16.8891 23.9604 14.4048 25.3931 11.864 26.8611V0.00671387C12.1604 0.176097 12.4427 0.345481 12.725 0.507807C13.3885 0.89598 14.0166 1.26298 14.6659 1.60174C15.1388 1.84876 15.2587 2.16636 15.2587 2.68156C15.2517 6.83145 15.2587 10.8896 15.2587 14.9478C15.2587 16.9733 15.2587 18.9989 15.2587 21.0385C15.2587 21.1938 15.2587 21.342 15.2587 21.5185C15.2587 21.6173 15.2587 21.7302 15.2587 21.8572C15.4634 21.7443 15.5904 21.6737 15.7246 21.6031C15.8798 21.5255 16.0421 21.4337 16.3385 21.2714C17.0373 20.8833 17.242 20.4739 17.2349 19.6905V19.6764C17.2349 14.5666 17.2349 9.44987 17.2349 4.34012V3.11914C17.8559 3.47908 18.4629 3.8249 19.0558 4.17073C19.8957 4.65065 20.7214 5.13057 21.5895 5.63167C20.7778 5.87161 20.6861 6.40097 20.6861 7.01499C20.6932 11.2919 20.7002 15.5688 20.6861 19.8387C20.6861 20.488 20.8061 21.0103 21.5612 21.2785L19.3946 22.5277V22.5135ZM13.939 2.66745L13.5578 1.89816L13.1767 2.66745L12.3228 2.79448L12.9368 3.39439L12.7885 4.24131L13.5508 3.83902L14.3131 4.24131L14.1648 3.39439L14.7788 2.79448L13.9249 2.66745H13.939Z" fill="url(#paint0_linear_3087_1337)"/>
<path d="M123.45 13.8843L126.607 18.7192H123.685L121.241 14.5674H121.211V18.7192H118.63V7.21252H121.211V13.2163H121.241L123.632 10.0892H126.698L123.45 13.8843Z" fill="#20B486"/>
<path d="M117.484 12.389C116.821 12.4092 116.34 12.5104 116.042 12.6926C115.647 12.9355 115.45 13.363 115.45 13.9753V18.7191H112.869V10.0892H115.29V11.0076H115.328C115.738 10.198 116.457 9.79315 117.484 9.79315V12.389Z" fill="#20B486"/>
<path d="M111.427 14.4004C111.427 15.716 110.982 16.809 110.091 17.6793C109.206 18.5497 108.1 18.9848 106.774 18.9848C105.449 18.9848 104.345 18.5497 103.465 17.6793C102.574 16.809 102.129 15.716 102.129 14.4004C102.129 13.0797 102.574 11.9842 103.465 11.1139C104.345 10.2435 105.449 9.80835 106.774 9.80835C108.1 9.80835 109.206 10.2435 110.091 11.1139C110.982 11.9842 111.427 13.0797 111.427 14.4004ZM108.846 14.4004C108.846 13.8033 108.652 13.2948 108.262 12.8748C107.862 12.4396 107.366 12.222 106.774 12.222C106.187 12.222 105.694 12.4396 105.294 12.8748C104.905 13.2948 104.71 13.8033 104.71 14.4004C104.71 14.9924 104.905 15.5009 105.294 15.926C105.694 16.3561 106.187 16.5712 106.774 16.5712C107.366 16.5712 107.862 16.3561 108.262 15.926C108.652 15.5009 108.846 14.9924 108.846 14.4004Z" fill="#20B486"/>
<path d="M98.8578 18.7192H96.4669L95.0172 13.1404H94.9869L93.5447 18.7192H91.1462L88.5049 10.0892H91.1766L92.4669 15.4554H92.4973L93.9166 10.0892H96.0874L97.522 15.4554H97.5523L98.8426 10.0892H101.499L98.8578 18.7192Z" fill="#20B486"/>
<path d="M86.9715 12.0474V18.7192H84.3909V12.0474H83.1157V10.0892H84.3909V7.21252H86.9715V10.0892H88.2163V12.0474H86.9715Z" fill="#20B486"/>
<path d="M82.4403 14.5066C82.4403 14.7546 82.4201 14.9823 82.3796 15.1897H75.9128C76.0748 16.2777 76.7477 16.8216 77.9318 16.8216C78.5491 16.8216 79.0729 16.5534 79.503 16.0171H82.1443C81.7598 16.9127 81.2082 17.6262 80.4897 18.1575C79.7256 18.7191 78.873 19 77.9318 19C76.6718 19 75.5966 18.5522 74.706 17.6565C73.8104 16.766 73.3625 15.6907 73.3625 14.4307C73.3625 13.1657 73.8002 12.0803 74.6756 11.1746C75.5612 10.2536 76.6314 9.79315 77.8863 9.79315C79.1918 9.79315 80.2822 10.2536 81.1576 11.1746C82.0128 12.0803 82.4403 13.191 82.4403 14.5066ZM79.8597 13.4516C79.6472 12.4649 78.9944 11.9715 77.9014 11.9715C76.8085 11.9715 76.1557 12.4649 75.9432 13.4516H79.8597Z" fill="#20B486"/>
<path d="M69.2942 18.7192L64.9147 11.7211L64.8767 11.7362L64.9602 18.7192H62.1443V7.21252H64.6794L69.1272 14.4459L69.1576 14.4156L69.0285 7.21252H71.8445V18.7192H69.2942Z" fill="#20B486"/>
<path d="M55.2905 14.1651C55.2905 14.9494 55.2247 15.5844 55.0931 16.0702C54.916 16.6926 54.5998 17.234 54.1443 17.6945C53.3297 18.5244 52.2569 18.9393 50.9261 18.9393C50.2784 18.9393 49.6814 18.8457 49.1349 18.6584C48.5175 18.4459 48.0115 18.1297 47.6168 17.7097C47.1311 17.1986 46.8072 16.6521 46.6453 16.0702C46.5745 15.8071 46.5239 15.5111 46.4935 15.1822C46.4733 14.919 46.4631 14.58 46.4631 14.1651V7.21252H49.4005V14.1651C49.4005 14.4687 49.4157 14.7293 49.4461 14.9469C49.4865 15.2252 49.5548 15.4605 49.651 15.6528C49.8838 16.1233 50.2987 16.3586 50.8958 16.3586C51.5131 16.3586 51.928 16.1284 52.1406 15.6679C52.2266 15.4807 52.2873 15.2479 52.3227 14.9696C52.343 14.7672 52.3531 14.4991 52.3531 14.1651V7.21252H55.2905V14.1651Z" fill="#20B486"/>
<path d="M36.6338 18.7192V16.4345C37.0134 16.1866 37.3296 15.9766 37.5826 15.8046C37.9166 15.5768 38.2177 15.3593 38.4858 15.1518C39.1234 14.661 39.6775 14.155 40.1481 13.6338C40.3404 13.4263 40.5175 13.2188 40.6794 13.0114C40.8767 12.7584 41.0488 12.513 41.1955 12.2751C41.5548 11.6831 41.7344 11.1569 41.7344 10.6964C41.7344 9.95256 41.3726 9.58065 40.649 9.58065C40.1734 9.58065 39.8268 9.77546 39.6092 10.1651C39.4473 10.4535 39.3536 10.8634 39.3283 11.3947H36.5276C36.5428 10.8381 36.5934 10.3801 36.6794 10.0209C36.7806 9.56546 36.9577 9.14295 37.2107 8.75332C37.5851 8.17647 38.0987 7.73371 38.7515 7.42505C39.3587 7.14168 40.0266 7 40.7553 7C41.5447 7 42.2505 7.16192 42.8729 7.48577C43.5561 7.83997 44.057 8.35104 44.3758 9.01898C44.5731 9.46426 44.6718 9.90449 44.6718 10.3397C44.6718 10.9317 44.5529 11.5187 44.3151 12.1006C44.1076 12.6167 43.804 13.1379 43.4042 13.6641C43.0753 14.0993 42.6655 14.5572 42.1746 15.038C41.9773 15.2302 41.7547 15.4377 41.5067 15.6603C41.3347 15.8223 41.1146 16.0171 40.8464 16.2448H44.7477V18.7192H36.6338Z" fill="#20B486"/>
<path d="M34.8273 14.1651C34.8273 14.9494 34.7615 15.5844 34.63 16.0702C34.4529 16.6926 34.1366 17.234 33.6812 17.6945C32.8665 18.5244 31.7938 18.9393 30.463 18.9393C29.8153 18.9393 29.2182 18.8457 28.6717 18.6584C28.0544 18.4459 27.5484 18.1297 27.1537 17.7097C26.6679 17.1986 26.3441 16.6521 26.1822 16.0702C26.1113 15.8071 26.0607 15.5111 26.0304 15.1822C26.0101 14.919 26 14.58 26 14.1651V7.21252H28.9374V14.1651C28.9374 14.4687 28.9526 14.7293 28.9829 14.9469C29.0234 15.2252 29.0917 15.4605 29.1879 15.6528C29.4206 16.1233 29.8355 16.3586 30.4326 16.3586C31.05 16.3586 31.4649 16.1284 31.6774 15.6679C31.7634 15.4807 31.8242 15.2479 31.8596 14.9696C31.8798 14.7672 31.8899 14.4991 31.8899 14.1651V7.21252H34.8273V14.1651Z" fill="#20B486"/>
<defs>
<linearGradient id="paint0_linear_3087_1337" x1="11.864" y1="13.4374" x2="21.5965" y2="13.4374" gradientUnits="userSpaceOnUse">
<stop stop-color="#07806D"/>
<stop offset="1" stop-color="#035663"/>
</linearGradient>
</defs>
</svg>
